# xmcd
#
# Track frame offsets:
#	182
#	16577
#	35385
#	55805
#	80297
#	113407
#	131997
#	160255
#	181420
#	200940
#
# Disc length: 2896 seconds
#
# Revision: 0
# Processed by: cddbd v1.4PL0 Copyright (c) Steve Scherf et al.
# Submitted via: EasyCDDAExtractor 4.6.0.1
#
DISCID=7c0b4e0a
DTITLE=Nanni Wan - The Sea My Home Town Disc 2
DYEAR=1900
DGENRE=Country
TTITLE0=The Past Love
TTITLE1=Wht is the Flower So Red
TTITLE2=Dream of Life
TTITLE3=If you are my legend
TTITLE4=Song of Changjiang River
TTITLE5=Flower on the Sea
TTITLE6=The Best Red Sun
TTITLE7=Good-Bye Girl
TTITLE8=Nanni Wan
TTITLE9=Sing a Folk Song to the Party
EXTD=
EXTT0=
EXTT1=
EXTT2=
EXTT3=
EXTT4=
EXTT5=
EXTT6=
EXTT7=
EXTT8=
EXTT9=
PLAYORDER=
